<svg width="36" height="42" viewBox="0 0 36 42" fill="none" xmlns="http://www.w3.org/2000/svg">
<path d="M12 3V0H24V3H12ZM16.5 25.35H19.5V13.85H16.5V25.35ZM18 41.95C15.5333 41.95 13.2083 41.475 11.025 40.525C8.84167 39.575 6.93333 38.2833 5.3 36.65C3.66667 35.0167 2.375 33.1083 1.425 30.925C0.475 28.7417 0 26.4167 0 23.95C0 21.4833 0.475 19.1583 1.425 16.975C2.375 14.7917 3.66667 12.8833 5.3 11.25C6.93333 9.61667 8.84167 8.325 11.025 7.375C13.2083 6.425 15.5333 5.95 18 5.95C20.2333 5.95 22.3333 6.325 24.3 7.075C26.2667 7.825 28.0167 8.86667 29.55 10.2L32.1 7.65L34.2 9.75L31.65 12.3C32.85 13.6333 33.875 15.25 34.725 17.15C35.575 19.05 36 21.3167 36 23.95C36 26.4167 35.525 28.7417 34.575 30.925C33.625 33.1083 32.3333 35.0167 30.7 36.65C29.0667 38.2833 27.1583 39.575 24.975 40.525C22.7917 41.475 20.4667 41.95 18 41.95ZM18 38.95C22.1667 38.95 25.7083 37.4917 28.625 34.575C31.5417 31.6583 33 28.1167 33 23.95C33 19.7833 31.5417 16.2417 28.625 13.325C25.7083 10.4083 22.1667 8.95 18 8.95C13.8333 8.95 10.2917 10.4083 7.375 13.325C4.45833 16.2417 3 19.7833 3 23.95C3 28.1167 4.45833 31.6583 7.375 34.575C10.2917 37.4917 13.8333 38.95 18 38.95Z" fill="url(#paint0_linear_101_3)"/>
<defs>
<linearGradient id="paint0_linear_101_3" x1="18" y1="0" x2="18" y2="41.95" gradientUnits="userSpaceOnUse">
<stop stop-color="#FFB4B4"/>
<stop offset="0.478125" stop-color="#F87F7F"/>
<stop offset="1" stop-color="#E85B5B" stop-opacity="0.67"/>
</linearGradient>
</defs>
</svg>
